# xmcd CD database file
#
# Track frame offsets:
#	150
#	11683
#	22913
#	43414
#	55534
#	65298
#	77658
#	89936
#	100130
#	109610
#	126733
#	138377
#
# Disc length: 2077 seconds
#
# Revision: 0
# Processed by: cddbd v1.5.2PL0 Copyright (c) Steve Scherf et al.
# Submitted via: CDex 1.51
#
DISCID=a2081b0c
DTITLE=Die jungen Klostertaler - Ramba Zamba
DYEAR=1900
DGENRE=Country
TTITLE0=Die jungen Klostertaler - Ich möcht 'nen Igel an der Leine
TTITLE1=Die jungen Klostertaler - Die Oma fährt mi'm Moped
TTITLE2=Die jungen Klostertaler - Western-Polka Potpourri
TTITLE3=Die jungen Klostertaler - Heut' gibts nir Ramba Zamba
TTITLE4=Die jungen Klostertaler - Sportfest-Polka
TTITLE5=Die jungen Klostertaler - Ein Jodler zu Meim Glück
TTITLE6=Die jungen Klostertaler - Pronto Guiseppe
TTITLE7=Die jungen Klostertaler - Gitarrenfreunde
TTITLE8=Die jungen Klostertaler - Firngleiter-Polka
TTITLE9=Die jungen Klostertaler - Wasst du, warum des Tennis so schön is?
TTITLE10=Die jungen Klostertaler - Mensch bin I beinand (Mensch bin I a Hund)
TTITLE11=Die jungen Klostertaler - Potpourri mit Schwung
EXTD=
EXTT0=
EXTT1=
EXTT2=
EXTT3=
EXTT4=
EXTT5=
EXTT6=
EXTT7=
EXTT8=
EXTT9=
EXTT10=
EXTT11=
PLAYORDER=
